<mxfile host="app.diagrams.net" modified="2021-09-15T12:09:58.008Z" agent="5.0 (Windows NT 10.0; Win64; x64) AppleWebKit/537.36 (KHTML, like Gecko) Chrome/93.0.4577.63 Safari/537.36" etag="LYCZ0B1AQY027GFlfJ0c" version="15.2.5" type="github">
  <diagram id="dBaYIpw_r4A-M3cLj3Ko" name="Page-1">
    <mxGraphModel dx="1422" dy="762" grid="1" gridSize="10" guides="1" tooltips="1" connect="1" arrows="1" fold="1" page="1" pageScale="1" pageWidth="827" pageHeight="1169" math="0" shadow="0">
      <root>
        <mxCell id="0" />
        <mxCell id="1" parent="0" />
        <mxCell id="j6sKEnwvYoX951Ntj7qM-2" value="" style="shape=image;verticalLabelPosition=bottom;labelBackgroundColor=#ffffff;verticalAlign=top;aspect=fixed;imageAspect=0;image=data:image/png,iVBORw0KGgoAAAANSUhEUgAAAf8AAABSCAYAAABaBN06AAAgAElEQVR4Ae2dib8dRZXH8weOjuLojMuM4zIj7grKogjIlrAjm4CArAoIkgVC9pCwBBJIgIQkhBAgkBAWBdFxY+n5fPu+36NSqequqq6+tx9d+Xxeum93dVWdqlPnnDpbLXrvvferN954d7R/Bf7xzn+Z+/HOPTRvzPM/ZtjHPveCf1FVVaNl/AxCgX+881/mfrxzP/a1X3C/4H5h/kX4Ga3wVwhgIYAIAWP8K7hfcD+Z+b925J1qxYPPVxfdsrX6xuK11aW3PVG9/vqfFtxCKotgvIugzP14577s/Mvcj1HoE8zQvmTmf9lvnqj+5YSlR/0t3fBcYf4LbCcxZgY4dNgRrn/7wO7e1tTQ4Reh6us6ZvjHDDv4VOBPZP77DrxZferHy6v//vmq6vGnX62e2Xuk+rdTVlSfOWVFteu5I70Rqz6IQEGC8e4Ahj73X/zZylq4vv3+Z3tZU0OHv4/1btY5ZvjHDHth/hPhJ2nnf/lvn6yJ0l1r9swTpeUb99XPvnvhhurwa+/MPzcX2xDvyyIozH+IeHng5T/Ma9U+ccLSavXDL2RfUwX3C+4PEfen0aeC+wk7//0vvlUdd9Ly6r/OfKA6dPhoJn/uDY/VBOv6e5/OTqj6QoiCBIUA9oVbXep9+MmD9Vo65crN1XEnL6/X3PZdh7Ouq4L7Bfe74OhC/rbgfgLzv+qu7TVRctkiXzr4x+pLp6+sPvXjZdVTu1/LSqj6QrSCBIUA9oVbXeq9a/Weep3du/65atmGiVbtl7/bkXVNFdwvuN8FRxfytwX3I5n/Cy+9Vdv1v3j6yurQ4bedhGjVwy/UROsHl2ysjiwA7/+CBIUADpGIXXr7xKEWn5rnXnizXlNnXPuIc82l9r/gfsH9VNxZ6N8V3I9k/lfdOdn1tzkgnXntIzWxunNVf57KuZCvIEEhgLlwKWc9P/7FpnoNHXz1j3UILQ613zhvbWH+GaNpxrz2xww767TAH8H8nz/wZm13/M8zsPW7d/0ifpT93Kn3VZ89dUWFj4CeD/FakKAw/yHiJZ7+Xz5z1fza+c4F62tz2pEj+XJpFNwvuD9E3J9GnwruRzD/y+bUkKaHf9Mk4RNAHoALbt46T8Cays/qXRckwOFx2zOH6mRHLx38w6Dh9I1vF/h9dS6U50OFXZ7+P7nqoXmcOveGLfV6yhlKO1T4p4U/Y4Z/zLCDXwX+QOa/d/8b9a6DuP7QMD4yAKKmJEwJBjmtBR3bTioSYAL51x8tqwkyQs53L1xfoaKNbX/W5VPhn3W/c7Q/VNjl6X/lHdvn8emGpc/UuLZuy4H5Z13HYKjwd4Ur9Psxw58b9h27X6sW0gYoN/yhODeUcsDvjfMnVe+z+16vrrvnqQpVPwwOz+OYzm/c+lL93QmXbBxs6t8UJED1ikkD08ZFt26rfvbLh2s4T75803z4I8LPzueOVGseOVCtfTQfwW4bf/qGY2ZbOb1PgV/fLvTrUGGXp//v13203lZu3l/j2K337Qqe27b5GSr8bf3O9X7M8OeE/YGHXqg3eV87Z82CEQBywp8LH6dZD/Afw/whMj+4eGPN2JS+F2ejK+54skqxN4oxrn4kf5KSHIOVggRoMhibJTc9XhNiGP1pV08EgG8tWVdrPAh31Phx3bLjlWxEuwludohoJB564uWg9lLgb2p/Ib0bKuwysT321Kvzc7j92cM1Pl14Sz4z2lDhnxYOjRn+XLCjpSLbKxpe6Bx5KVL4xLTmXO3kgl/1LbQr8B/F/GFihPF94sSl1f+cu6Y6/ZpHqrvX7u2kziZUyWSUQxukFCQg2gGYTE3Iq4feruShjbCEGYCkRxBrynLw0TRg/9b56+r2vnLWquqVV5sdM+lPCvzTgGMabQwVduHRy698ZEbCyRYCe8KlD2bDo6HCP425L7jf3dmRXC5oP9lsYI469cqHatpjmqumNZex7RTct5g/KURzMyqkwH//yX31OQCxEzSN8ilIcMY1k1BGzCJmHzGVoHI3TzfER+I/fnp/9fnT7q8Qrszyue+JrGD+5IvA4UttbaTA31bnrN4z7pipfvGbJ4+aA19/hgo7AviXz3zgmLlDoPvCafcf89wHX9vzPuAnt8eOZw9XT+95bfA7wD7gbxvzobzPAbuYvTZBJHn7+jlrahpkaq2GArPZjxzwm/UttHvgP2rnj3cxzOPJzGlEpfq3meUQBiwWCWAwMHPSG5tMvgmWS27bVo/rhsdezEa4Xe0tf3CSCQ4GiOaGnSJqOVdZPYuFX98N8fqblRONDDhs2st9fR0i7C8enOT0h7Da/db6pIz9LuV3TvgxS7DOEfQZf/5IA46mAkEgpX99f5MT/r77mrv+rrBDy6EvmIjNvmHeZe5zZ6M028hx3xX+HH2YZR3AP8/89zz/Rq3u/95FG46azBwdFFG+Z+3e7HWn9o8dObbVbbvjTiFE1QVyn3PDlmBYHt3+Sv3NeTc+FvxNClyLfz05WwGfBHwMQtTEH5dFgI/DJ09cVu+MOV0SJvR8S46JvmFH63X7ymcrPKFD5/OR7ZOc/vjY2N/oQK1c/iO54N/9/OuVTiAkIgg8Bxe/uWRiguLZ/ggnVBvuvn7ngr+v/vVZb1fYr75rR03T7GPciXjC3wnzY5/9b6obc+c1d++ozbBs1L59wfpjHBG7wt/U/kJ4B/zzzJ/dIkytDwaNGjCWYfY9gBBl+vSdC+OEnTvncq6H5jsADjQEEECYEr4BfcBGG0RlgOxKq8wJi5gAmmz/H4dFQPpbzCrAiqZDOSZ+ft2jjWPdN+z4y4Bjp1yxubEfJj7oG9c6BOeoT2pW87uU+xzwo4VAy0S/XJk/RVdI920fBJbS55zf5IA/Z3+mWVcX2JlH1hsCtivhm3xWSPY2TZjUFj4H4CN/X5g7Fps+mWHqXeBXO6FXnOgvumXrUe2HfttXOeCvmT87FBgHjmpNjCK1IzAmbJXYMkNV5althXyHbfyzp36knowxR5x9/STZSqwqEzUYyHj/5v29LAh2l9R/1q8+YniSzpvMDdNcBCFzk1Lm18smMfC3rJiEwSH8fP/iDfV4NMXF9wk7Mc8IYswJQkmoqv6auydC+KZtx0ZroN2gPuY1ZZzsb7rCzzj/6LIH6z6hlbDr5zfrHZyk3+fPRce4ys3iWVf4U/rMOoUW3LxiZ7Vs476KhE4p9XT9pgvsKx58vp5Pl3aKfrEOme8Q01tXOOzv6/NnTl5RHzDHmoO3yey85NePz/OfLvDbbTb9ZrOHoMR43DGgdPfAXzP/zdsmRAXppAmQLu9EAGKZZpc2fd9ChJgMTBxcb7v/2SC4tbtGkIkVYhSq1bYb9fW57bkiEMwd48bHJ3kWSEjk+35ai8DXfo7nJ1+xuZ5HU83/xM5JOCahR742+oQdZ0tw66tnr66vobt1HYu9y3ImBQbgo06ImQ+mmOdd4cf8QH/q8K6GQ7wggMcvniT8wkQQ08c+y3aFP7Zvz+w9Mi8QMm41fpy1eiYCQBfY8eOg7zv3uk2m2oj0Reuaxl3Cs6mFYkNLemz6jAma77vA39S+/Y7zbTTXbAZwirTLzOI38NfMX5Ia6om+OqLEJbM+7IfQQ2zhECMyFxLWeGJg+BQEmYnk4KLYcUJYQE1GIozYb0PKyxkMmFT+lUNv17tOEF/P7Ou0FoHdbq7fqPI47x7Vs10nwh3zi1nAfsfvvmDHzIX/wVfPWl07z4Iz5IFw9cF+Bi6Cn6aKUmXAIUKrXLCqTMy1K/xSr5LIqq1dhB/GAVtsW9lpve8Kf0w/UYFj+mMMbl6+s8IxjtTn/LZV0jH1ppZNhR0BRn32tQ2eEq0CrvYd4WT2AW0bydfYaUP7zHf7DrxZ019Mr9DIVPjNOtvugZ0IHfIgaDPQtBFrqy/ne+Cvmf85c6psMtLlbMCsCykRpElhnGY9Xe+RRumH1Kon/mJTzSBC1G+o6fgWf4GUfvzwko11W7ltnzCKz5y8wskUyK4IA/SpnaexCFLGKvQbOchdfNu2Y+ZEAidmAVd9fcEuLZeYImmuIQBm3L6rPzyDQXzp9JXO/vIegQYzQg6i2gV+CDyEDWLqsvva8LH7hxlgg3UJNnb5afzuAn9M/1jvyr/xq98/PT+3mE2kknbhb0wbsWVTYZcPB7SwqU20yNBK1mdTuZzvbrj36brNm5bvdLZ5z7qJDw5jngp/TH/v2zQxjzAW4D8CEc6QMWbmmPZiygJ/zfzZSWDvl6NYTCWhZSEWckjjPvS7nOVoF+IDcVUffrd+wtBD1LLsWkzBIbZvSviTO5RSJoULbp5kHDT7pcVKDgfzue6nsQjUVh9X5bx3aa1QsX36pOXV185ePT/fZh/6gJ01hIaHhS4c0xxADMz27XvskzD27zdE3Cy+cRLR4VO52nU2/e4Cv8wqpo9JU1u80+7HNVdt3/bxvgv8Mf2RSY4ICOGEvsc7/vjFk6iIJv8Ulc91TYGdvrOWCOFsO8dEOWOmpelh3UHbWXs+IZv+o1mDhj/6zOHGtdh1nGkLgY+NlzbVCsUmJXzX+rt+z/wv+ts/3qs7yA6xa4Vt3ysFbkzu+bY6Y95LZWUSrINH3q2RgWyGbXUpuQ8qpLayrvciAjjMuN6nPiO3NgiNE5Fdh5zECGu03/E7hQi46pnVM3kW+3BKWi3XDqQP2MUUYdIaEz1rs4GijmQeTfxUHbrKuVFaBT1PuXaBX7bVGAdWhcmedPmm+bFJ6Xeub7rAH9oHGBFqaDZXPu0imwHmHc1gaL1dy6XAvvWZSbbWJvxUv4AbQbbJ5KiyOa7aAOEz01QfPmfsvsnTkvOETLtNZbY1Nd0I92i/0JjZ5af9m/lftOelSVIRH3PI2ancccqxfVMYlel3wCCQlQq7MaqZpjr/97y1dZSALb03fWO+00FH1979VGM75jch9zB9iMcqx+4elSOS+jcWr3W2Cfzbdx2umBud6RATxhjSv77KABs7e/w3fG1ozF2e5ikE0NeOnt9238TT2dQkgS/Y/zHNNOGY8kE02QUl6CmyQe2mXLvAz1pg7Nt2gHa/tPPKobmw64793QX+0Lakir7eUPe7vpXPTltSLte3Kc9SYBf99mkR7X7IzDkNJzeF95oOz3Z/9BsHb+glGmDTAR3hDIdANG/Q6FQ6TzvKbWPnQZCZZ9aOr8z/ovsfOVAPxDTCMuT5uGxDs71Ik5T7Kk9qHLJUN4NAyArIID8AvTOv2FiRZLskQcLxjHbOSHAYNPti38txCOnXfsdvThukXUIc7fd/+ss/alUZ73FSg6AD57SIkN2fmN9tWg3qQh2ICh7btK0OTCGAbf2TdoukWWZZHdbzaMMBT1ILQsjMb8177Z5dwoxZLuQ+FX4IJviSEnUgGIeQAS4V/pCxpQzMBAc0vLxt3LPrYL0xpj+96tjMjnbZHL9jYWfXCrNk5xrqswQDBaYcWqo2mKGptOWKknF9u3TT5JRMtDKEb0PX8cuhDv1BV4Hb9X3bMxJdUY+d4Eva32nw26Y+Mv+LrpjL1IRqsqlwjncKPTOdXnLUG1rHl89cdVQSHL7jnwiSGR5i1ymTAXY7+13obyRJ8gvk8tZWu4q19u0q8S4GEV1MRfPPnBASA0OF+RPOaEYOqK0hXekzcLk0HmY/b1w6yQNgH4cbSwDNOl33EArm16XWk9aJq+tbnuGoBDxrGo6AxlkOIY2kOb56Qp+nwq/xtHc1Ie2CowhiODZ22VmFtNVWJhV+dnWEN7LuEKxR8bra4owJ5hNtkOu9/Yw5pTyaOPtdzt8IxAcOvRPl46Vw8Bihk80U8PhyQOSCCXgQsGJSrjP3OAQTWUMfoXn4XqBRg2F/+/xJaCAmjhQBACdfNH32t8wt7fWd7bVtbIF/0Q8ufbC2gUzDA1ehcudGpMZtAyL0PWoWBt3erTAIshc1IbYcWHyepKH9IPkMxDvneONIyZ+vD+z42dGzAzbb3fLUK7W/ByYB87myHyINm8999c/qucLifJEM6hc7MMw6EAcTnlTir3rtq+x8LjxSTHwTIbz41skZEG0OoThdQezs9mN/p8KvvAo+P4u2frD+WYtNWpC2OnK8T4Ef7R3rl/7rj7mw7ccwPhgL5p6QaAjgWfvoRAsbkzo8ZRwwK9F3fFDskDhffdIubtr6UjDeIehNI9Wv6Hebvd+ETXPPfKKls5k0pgoJY6FmDtXPJgpHP5cPhwQV6PUshV/gXwRTQMpRx/u8SnXe5M3cV/uYGkB4WwpnEGAISH6kw/W1r10Z8bm+MiHP8cinH6bpIeQ7XxkWGPWxC/GV4fmlt0+SzsgWDbJLumW3b34LUkKAqDenehZ1MR7veL8znr74e7MvvntUj6jpvrUkLIe44EfLozpFAPS761W+F64wKIgJ4wnj9LUju2+bjVSmBZ8Dma9++3kK/OAGHtUwNbu+0N/rtrxYjwVzEvpNH+VS4FfkBiZMCLnCSfEb0nxwhbgjJCBgh/adscWXAoaZKli1tcUahNaBi/zhkNe2DjFZoK0BJptJtrUnAV1j01Y+5X2MvV/1h8y9hPnYzap8d3ynqp45F26uKAD1qe3KPMB/iKDAkZl22r7xvQf+RSCAa6fi+6jrc3Yt2Fm61hP7vSRXPFbNb4UEqHzYHbKgzfe6V4gV6n89S7nKIawt7Cu0bkm9wNf0DdItix6TA9K+mPvFHgIMoqGaZfeSw/6vRFIiOlyRjmFktl2sCQ690wILZSBonWgPgUcSt+ZedXa96ohTHzGFePLnawcNDDZi33s9V3KdLoufulLgh2AxdyEe3+qvfUXYZreMaalrvgJ23BB/HDvtdtp+x8JPvznACNOOmQZdO2kSeEHw5WODs19bH+z3ckazTVR2uZTf4L20Npt3vFqR7pa5ROBomgcJONcnwBNqmkuBR9/E2vv5LmTuGS+0pcx3qJ8DdUtz6jOLyfctxrEaeqzjkpkz/nDkXp94Uizw18zfZQvWwOa+ikC27W5yt6tcBjaSCwnEDH3SWK7kKuTZZ+LYQeSAEXs39bnC/Oz6deqfMo2hgcHhzy6n3zAXGCa+El3mCw9c+gjjw6+CMQDxOW2L5zA8/EHUbshVfgwxQpQkbqkuNfch7bWVgTGwO2rK4CjC6xtLxqEpckF9kP9AiGezvnFdU+CXf4ytQXPV3/RMJo7YeVednBePsAT+8IcG0/TcVjnXFRoAzdt9IC6vPmGNtGXv6NgwIHyb5gBCp2N3yfSVHTI7f+iVhFQXDCnPRCs4aOrDDz+s69emRhpBu176QLw6sPmEWvsb83eIU65ZPvZeanQzr0ZIHaG4rwiHmBwMcvbDOdfVFznMxgjQclZnx7/h8RcrcmXIOTslbwbw18y/6w7CBaDv2aW3TdTPHDvrK5P7uXKiu05XExJIrU8old0+CwDCjIRsv4v9rVhuGFHst67yUjW7+m2XB+nk4IKHK7ZIwW+X1W+pOYnNDrUP6luu9AsBgp2eazHATCB2aCVimJlU3zEECYYB8UaQg2i0wW7C0XavTINN52OIkLiO5CU1KX1D9d/WljzDm0IC2+rgfQr8gqGrNkgwpDjQMlb4b4BXeMcrWgd/mhCGq5M5GW8IdejpcwpT9AkZrA9oKcJZlyOMYQr0zZWbImReXWXAd4R+1hn919yjEWT94aSKAGt/qzUTkgfF/pbfH4XjhpnnXHU0PZPmM9aBTvA31c07/FKYC7QkbWX13ufsp/fwEw65IylRiICHBoE+YJY25wgnTDYczGmsGRn4F7GAYmN1BUTKVaEOMTs2XzsAD1OBEcBEfMxJbbp2K0IC2SFdkQgk9WHwc4ToMdkk/ABBfHDFPFfWwFAPYXbcnC4lpBP8vjZBNjFaiB/qJ19Z+zmMGVjxevV5RPMNjIB5ZIxDnMAgZNidIWZ2m22/RVh/t2YPoEd/76tf2euadgjasbs8/pXoJSTNK/Zgxop58fUn5HkK/DhBsQs01d4hbdllmEMYOPgBM7ffN/1W4iZTe6Z5bVOXo3XB7AjR/N7FE+96frfZ2CGujPk0EhShmaItM1FU03iEvJPDqYQtc+4vuW3iaOrCS5kG2G2GtOMq05aIy/VN6LMUez91m/A3tQWeEuIIvTEZr++bJmc/8xtpmtucezFXgqusE1cYI2GU4Apa3BDBV30A/kU3LN9VD8S0/tv67CRG+K51z3VqErUVkQoArr/jl6yr/vb3946ql3Kol5Fu3/nz3496Z/548+2/1vWcd9Pj5uP6/ql9k8xrt6zcfcy7lAcnXrap7s9773+Q8vlR3/zk6ofrfpOpsa9//3zvg2rxTZNc3ZyF8Of/+0dQU0vmDi5ZteXF1vK7XpgwtO9dtLF6/4MPG8u//NqfapjxV4j999Y7f621OBD8JnyIqZf+wsgQYBgr3789L052979auvOYIo/vmqwL0k2H/Pv8aStrtXdI2Vxl3n//g+q4k1dU37lwQ5YqlVr79lUTQSyk0o1PTnZirCH6o3/MJbsp7KCH3vizHh9zvXH5JAkT9Id5u37ZJLxy2ab9x5Q1H9x03yQxzMNPHzIf93L/wQcfVl8/l8RjK6q//PWfWdq4eS6xzZadh4+pjzXBuH3l7NXVP997f/49Y0of6At9Sv13x5qJ2W/9toOpVXi/u2QunJJMrX39u2YupPjJva+3NvHsgQkdu+7eZxrLbto+weM23L9oTlPeNHbn3zIR3pZvfqGxTftlndtf0sA0rrJ3LOl4trfCYlCfo07WbsC2x0ltZaZZNOFkQPjNThjpzmWzZaeMgJErOZGkaZca3OxbyD1Mp8mJrK0Owd9WDjupQrTQWrSp29kp1BIpqliPE6XdpuyPbT4oaC+oO8ZhxmyL3SHfX35nnhPmZNd0na1gtsuuk3Zd5iftYEJTP5ONEXVfyG7E7IN5Hzr3+kbaiVwOwmgcEZgwqbWFa9IHnG0piybJ5ZuDNpHxhRaoz+aVnRObAOzDRMnwjzBYxrEtagQbfEgWULO9LvdK4+zSVqbUi38ENmJpbOy5lzkHzQBrnXLgGOPZpk1p64+cbRljaRzbvgl936Zi99Vjw+8rx/PQ9U1ZOfu18Qo0qEQrMS++tmsz7YlLa9xsGjfM2vAu1oWdXMxXN/BPnfljA8LuzJnQvo61PWcgdD4zNh/KY7/GG5K6TR8GefnjZOaq10QC+sT3tvlAfgp2pICrvpBn8nxPcdQw6w8N8zO/se9N+O139m+YuDLVQUB9tk/mgnPsUQ/HJI8CifGsJYuYKxuh+iPnl5QoAeqAYcpZzGV/Vzuh13nntQCPc5/H/5Vzsdcm7ja1j/AMYfbNQdO3ehcz93wjs0Wq0KV2zascN9tSXkMsYcDA7COs0IVvLpkcpuKKymEDwPcSsAS/Uq76cFUbllS7twlv6D2Of6h70WaE5gnw1c0pcsBt+pMIdn2D8CWaih8FSYz4Bt+gUOFddbmuMst0MR/Y9Yaq2O3v+G3D7yqjZ6jTEVJZu01MmPJtzn6qk6vMqS5c5b1MAyH+XGQMZL4wzdpO7Wabugf+qTN/Gsd7HDuKOhJ7JQMagNpOczjIwLwhEjBGdhYsIHbHPnuIiQSyfdn2aex8tJfLN0L+BW35vtvGRXbIth1nUz0m/E3l9A7k166EBYFmRe+4QiikIWA3Yb4LuVdO7CbHOWz9SLpdiJIcztiNhCwWX9/5FhMCfyH1yOPf9p0QcWzTqKgfYpohCUiYM+DFPwQBGTMY4WirH4uLsJB/SU5nXQg4Y4dN0xcLzjyLULbhFAI1a9W2l2u+sY2KgAv35QVPRj6Nr3mVM7DPI94sm/NeIYRtmrC2NrUbJWRPZQW7fnMFJxWmyBgiLHTRLJl1gzPUif3ffN7lXs54trY3pE4X/E3fSXC0kznZ38B74Dk+fmOWB58YE9eR49r1I8yG0DlwGuGU+jh0y2zHdQ/8M2H+cgCxd9iuTrqe4a0NkNr1m2WUzAXGpHZMxyCzLPcmEkidzLnPKsfAE4+MAKFnXa/KNgjB71KXsg7CCFLrMeGPqYNdIM6iqJqkVQEBdY43RFYqxph6YaBoDVDPuhghz5j7rs5u9En2QgSOmD6aZXVwELt/87nvXilfbY0D44X6OYRoUDfJPnyEw2wbp1iiVCjLH2pz1Nf63XSehVkP9whKqI5zMQTVL00YQjbaHz3nynyL8MKY2gQs1ivwonWSgxTPtKs1x124DzzQC/5csBFFAK77hBOzvznv0X5hi4f2uPoV2pY2L+Z6Eux2HbTDJigm+59dh++3BAt7c+Ur3/ZcpjJfPH3T9z74fd+oLZdTpL5RxE6ogIO2hTXvSrInM3bIrt9sn40RG+A2DQvwz4T5i0G4mLcA8V0JoYFw+QYYgQICy26CcizaphOUTCSQJGnuAJTlyd5J+PoX8hwmiXQYEtPdVJ+I5gMP7T+KYDZ9Y78z4bfftf1mx6TDMEA6GBhjDpOI9eA225J62bXLk123i8Cjtt5+9++1iQGGGBrupW91lZ+CnSVR7+2rYLPDGlHvxkQvQMhZ5DAmuw1+M/4yDVAOFSIx9RIuyDz3yR9h/14VFMGBJg2G6mvP1YfQZ9St/B+EPzE27IrYwbBOwClwK5T5KhcBmkH8LBQqhQrb7JOJ+4rWsDUpRPowfqhTzW+ndS9hkeiUlDaBv2YwFxydxdWEPaXelG8enItiwK+K49ER6shMym4ZYb5NsLPbVN6S2DA36omFX1rWpmx/8nOKyYqK/w/4jWlG8Kke6GjIrl/fcYVfMd8Isk0JgIB/JsxfsekwD7PjIffa7bapzEEkiJ0SuvjqNpEAtRcTYeZkVoaqrvZ5u/3vXjiJQIhFeLMeqWFDw/zMb3Vvwq9nMVdMLdgH0Y4wdgg0XWKcaZvdB/Y1dqg2wZc2J4fqGdjlzOlzEmsaC2zHwIymInSRYtPnG1Ow2T1nk43VZigdsG2rZvzAYdpBbWibZgTTrSsnjqwhZiOpzaWdrtwAAA74SURBVFNUrGqv6cr44VgG4aLf+oOIITCFji9tIODgCEYdaCrwI+FqO0OZuM8YUt4O5ZM2kMx7Tf3v6x1CHgI2wiF4EtuOhGU7hNmEPbbO1PJsenQImeZXc8S1aVftahNaU2dlTTh5LxZ++g4uNtn9yYAIHDEp4BHq+EabGegdJnHWQSqNQ3OtdcTadoWxAv9MmD+qDABm5+qa1KZncoxqY+pNdZjvbCTA6Y++ybaDupCBtG20Zh0p99oxdnHY0nnZ7JxS+sA3Nvyp9fAdTD+GSDe1pdwMpslGDAj1YdO3oe+AHUaBIMacN0nKdp0wcYgyWoOYnYc8/k2HV2kDYs0PivG9yDA5QKQkFLKzalIXE5bI7gLY29T/OskvtxBsjysRBdAFxoTNQUgUgF0Hv8FFbKmkEwc+E49U3sZ9CZYmbZGAZe7M9P20ropOQTMUe9ImO2zgtwVEG/ZpwQJ+sgZgSJh4wE8EHMwbMNZQU7A0UUQkpPQ9BX6Zn8Qb7HaFK7bpyi5n/gZPMXGiocZkrVTFNyx9Jgku1c18k7KeuUdzhamcdSXNH/DPhPlLyg5JaCJgdEXtmCPJiOqzkUAHAF19145KyX18JgbVkXKVw1aMTcdsh0XEjsYVmmiWa7u34W8rP633+AsgaeP5L7ONdg0hiYBC+inYwUdwCuIa4qeA+hKzEt/I3yGkPZVBhc1il0SOOppFGhv6yULGHoxqXMKpNBkw9TZYgF+mLmy86p/rKu/vGMLmqmfaz1gnhAVytdvW/Ou5THwIg5THMZc5ZixVZlZXNJ3gCFomn3e43TeFMcIEbPht2O1vp/0bVTnw4VwZ0raSFoWe7WHXmQJ/k92f8cUJOcZ0pz5BTySkMgbwuC4aYdWLYEWoKKmmwWOEAAmPwD8T5i/HCCQldTTkirTHLpzdeEj5kDI2EtAGk4jtUWlA+1D5KU9BqoQ3nyb42kc6jYUNf8iYTauMvJQxKci/wRUjn9ofE3aEPRaeqY6362WHLyZIWdN72i7b9FuCH+E5aEoQJFDr2gS6qQ69k6oRTQlaMRY49UlgUjnXFfhpkwgA1OLsyFzlEDLQcECgXO8X6jNz/gUDfgLMbe1vcPKKelxyCZtqI+XKPIlBQgNxMG3zU9GaYR3Zbbpgt8tM8zc8AbrLhsY29bn6IUbMGnK9b3uWAn+T3X/n3smBV7ZfSVs/9B5GDV1gg+PTLKhsypXxNXNjAP9MmD+dZ5KbEhy4AJTaN6fd0YUEimVn5wkhMAfN1a+UZ4q9TUUW0sjStzbfh7a+ueBv+2aa79nJIrUCK38xR6S29dOEHaGPY2rZkdu2R3JTEIcuOxqaoFR7HH0SocDGr8Q5MWeRm3ChMjXHBxhC81EIfgRQxtaMcjHbUJhW18RcZp1DuBf8Zl/YVWs8EaRSNXNmnbnuEQAwu2iXCLP0OZpSFkc6VMouZuqCPVc/U+uRecNlorHrlDNrqr9TCvyMKYK1y+4vp1KXoGX3fQi/gX9mzB9VFOpKBjR0MBRfntPu6EICHRYBQWRXFNq/mHLs+HBWwSEr5juVVexxV+Lkgl9tDOWK9yvq/zbVdGx/bdgRLCCozDt2dNTAqM0UKoeKnRwTMTjr6xMOaey2tXPvEkOusCBCtNpU/WZ/BL8cDtl1mO91Lw1M6i5L9QztKvjtfimpV6wPhl1PX7/ZJaLpQRiFubvOSWkz5/hg76vPIfWSRwV4QmgiZfATSFWPp8IvzZC9O8eEDd3wOdeGwD/NMsA/M+bProfBckmlvkEg8xTfYIv3lYl97kMC7C601aQGjm3LLj85c2D5vBOG/b7pt7I/ddVK+OBvansW7yB4clbJ1b4LdjQycpRh/vWHmlV29Rzto1ambpLbcGUHn1ovWosUhzQTfuyCpk3Q7Eubo5NZdiHdm/Cb/UYw77quzPr6uifHhPAHFb8plOLlDV754r19sPfV19B6lQRLtmnXdzgFIvjgO+N6H/IsFX5MfYyr7ZtArD4OwNCpkPZnXQb4Z8b8JV2Hqk9ZkOzKOHoy58D5kICQQjQTof1L6ZPS1KYQGhhUHeYSoTlx9dEHv6vsx+2ZD3Z2z2RXg4DiANpEiFLHRKp0CAnq2dR6unxnwq+QNpuowVDwf0n1SejSv76/NeHvu62+6sdshBoaPIKmkgqYuYQ2kIIbuulqe6iwS8sEDK5+80z5Aq68Y7u3jO9bPU+FH9u5xlZah3lhxJNzQ20O6Qr8M2P+ckYJjfUnjzsInmob9Q18KhL46ot5LjOGnVikrQ6kSyRfvJLbyra9nyX8bX3r+/0sYYepkmBHRLtvWF31m/ATUofKFROHuYOUf0Juk4urP9N+ZsI/7bZztodwSsw7uKSkSJiUlm/c56UPQ4UddTpwNOW8kNYME1zqOHaBH5MgfZTJVUl5+tQSp8Lp+w74Z8b875/LwY3tytdB87mSITRJhGb50PsuSBDahq9caIpW+3t5neZwwJol/DZc0/49a9ghFhCRmKQgOcfIhl+mJBE12iLbHn3Euzpn20Ooy4Z/CH1K7QORGuS/QPWMw3KbaXTIsKMJY3ftO9CoNlGduLRTFtEu8Iv+4iOD0Ex4HyYzHNJT52/a3wH/zJi/jto1U+k2DYCkrdxq+C5I0NTfkHeScptSRrrqUWa5HCGIs4TfBds0n80adgg2qWjNnfYs4ddhIkThoC6mX74kMdPsZ19tzXr+c8PFfIUmyRky7FfcMRGKXUm38G9BQ+XKhx8znl3hV0Io+Ya1nUoZ07dplAX+mTF/ElCwowg9JpNMToTgEHaVc3C6IkGXvuDAhscqEQUxDEDxvti+urTPt7OEv2vfu34/Zth9c6/MkwiYyrKIf0luZ8uuc5fj+zHP/5Bh5zAqeAM+DPY8k4mSd11V7F3hx1xNP/hDEFho6wP4Z8b8YXYwvhAJjl0IXq2ER9nI0PV3VyTo2r7SOdrpN5vqVaRE05n3Td+b72YNv9mXad+PGXbG2gU/J+HhT0JiJVSZX/zZymNy4k97nvpqzwV/X20Nrd4hw45PE3lgUKfbmyJyAMBwu5rKusIPsyffAs6WCy3rJbjIv5kxfzrAjpdEOm0Lo2tCnKb6uyJBU90h7yRBouoKKU8ZFgUe2KHlm8rNGv6mvvX9bsywM7Y++HXqJsI5uQ76nodZ1e+Df1b9mWa7Q4ed485h8nZ2RU5XRChNPfNBY5wDfsLUY0LV1fYQrsA/U+avmM62xCQ6yQ/v+NwDlwMJuvQJMwYhjIRShaiOdPKgffpYah9mDX9qv3N8N2bYGT8f/DiLYY5z2VxzjPtQ6vDBP5T+9dmPocMu9T5CgMYBB0AcGnOctTB0+AVzX1fgnynzv+DmrbV0RxhfE5DKgkZK26ZyKe+GgATaaZG0ow0GnVXeJcbVbGMI8Jv9meb9mGFnnAv8Vet6myY+TrOtoc896n4cTzFBKQEWqYzRBoQ6iTeN59Dhb+p7jnfAP1Pmr5zibUxdGcb6SLYyBCTQmQU4WzVNLLYwkhyxILDNNpUNfTcE+EP7mrvcmGFnLAv8hfnnXlM561N4N3H9CANyRo3Ni+LqU8H9GTP/ZRv31ZLcnauaY4g5thbVuO384ZrU2GdDQAIcGkn4QoIOHfPqgkPZr4jjdb1PeTYE+FP6neObMcPO+BX4C/PPsY76qoOwReg+h+mcf9MkXTFJqNrMxCH9Kbg/Y+avHe9Vd/nTNIIAOHjg6BEyqbFlhoIECt9DrYUTJHYtkkgQZ40EjNaD50Q97H/prWxjMRT4Y+ctR/kxw874FfgL88+xjvqsgzTb0ET+iAxr2hzF9KPg/oyZPwyNSTWdOuwJxNuYMpdm3O2abQwFCUBqYldPvfKhOoREB3YI8RGAuL9xaV6nx6HAb87JtO7HDDtjXOAvzH9aay21nT3Pv1GH/f3wko0VSbFS67G/K7g/Y+aPdzv2a7Ik2ZOj35ytDtOzz1jX+67XISMB40OYI74RxJTWKq9Db3vHKmUshgx/Cjwx34wZdsapwF+Yf8x6mVVZIpxym3wL7s+Y+YNMxKwT5uZDLOzbMP++zkkuSFAIoA/3Pu7PC+4X3P+447gPvoL7A2D+2PJh7r60vdi9UXnncPJwIUJBgkIAXXgxhmcF9wvujwHPXTAW3B8A81esvyu9LaoevD1RebsmMMezggSFAObAo4VYR8H9gvsLEW9z9Lng/gCY/52r99Q7/3vW7T2GwRPLjlbgzOs+yvKUY+LNOgoSFAJo4sOY7gvuF9wfE76bsBbcHwDz19G+rhOclAcgx9G15sSb9wUJCgE08WFM9wX3C+6PCd9NWAvuD4D5cz4zR/VyZK85OdxffNu2Xp39aKMgQSGANt6N5XfB/YL7Y8F1G86C+wNg/kzK8YvXVsedvPyYg21IdPPpk5ZXpLW1Jy/X74IEhQDmwqWFVk/B/YL7Cw1nc/W34P5AmL9yNj9lHPBDbOcnTlxanXDJsRqBXAhAPQUJCgHMiU8Lqa6C+wX3FxK+5uxrwf2BMH/lrF++cd/8Dv/BrS/VKv+m1L85kKEgQSGAOfBoIdZRcL/g/kLE2xx9Lrg/x/wZiFn+2/XCWzWjv37Zzvlu/HbNJLPflp2H55+VmzICZQTKCJQRKCNQRqD7CMz0SF9JcLWK/4Sl9UE2enbKlZtrgWD/i/kOsVHd5pUhNH+P7X7M8I8ZdvC8wD/etV/mfrxzr7U/COZPZ75+zpr6AAcS+3DE7edOva/6ao/JfcTkyyIY7yIocz/euRcBFB0Y27XgfsH9wTD/s6/fUu/0SeyzY/dr9f15Nz7W+668LILxLoIy9+Od+8L8y9yPTeAz4YX2DYb537xiZ83w713/XHXdPU/V93et3lOY/xvv9joGY2aAY4Z97Mxv7PAX3C/Cz2CYv7z7SeerPzP0z5Ract6XRTDeRVDmfrxzX5h/mfucfGSh1QXtGwzzP/jqH6vjF6+rvn3++urKO7dXDz95sNcdryarMIDxEoEy9+Od+8L8y9yLB4zxOijmP6sJKAxgvESgzP14574w/zL3s+I5Q2i3MP8S7gQOTEXDMgSEt/swZtgZiwJ/wX17TYzld8H9Aan9Z4V0BQkKAZwV7s263YL7BfdnjYOzar/gflX9PxqiFgfRvoIrAAAAAElFTkSuQmCC;" vertex="1" parent="1">
          <mxGeometry x="158" y="190" width="511" height="82" as="geometry" />
        </mxCell>
        <mxCell id="j6sKEnwvYoX951Ntj7qM-3" value="&lt;font face=&quot;Times New Roman&quot; style=&quot;font-size: 14px&quot;&gt;CHROM&lt;br&gt;from&amp;nbsp;COHFACE&lt;/font&gt;" style="text;html=1;strokeColor=none;fillColor=none;align=center;verticalAlign=middle;whiteSpace=wrap;rounded=0;fontSize=16;" vertex="1" parent="1">
          <mxGeometry x="60" y="215" width="90" height="20" as="geometry" />
        </mxCell>
      </root>
    </mxGraphModel>
  </diagram>
</mxfile>
